<svg xmlns="http://www.w3.org/2000/svg" xmlns:xlink="http://www.w3.org/1999/xlink" version="1.1" width="256" height="256" viewBox="0 0 256 256" xml:space="preserve">
<desc>Created with Fabric.js 1.7.22</desc>
<defs>
</defs>
<g transform="translate(128 128) scale(0.72 0.72)" style="">
	<g style="stroke: none; stroke-width: 0; stroke-dasharray: none; stroke-linecap: butt; stroke-linejoin: miter; stroke-miterlimit: 10; fill: none; fill-rule: nonzero; opacity: 1;" transform="translate(-175.05 -175.05000000000004) scale(3.89 3.89)" >
	<path d="M 48.95 90 h -7.616 c -1.982 0 -3.588 -1.606 -3.588 -3.588 V 3.588 C 37.746 1.606 39.352 0 41.334 0 h 7.616 c 1.982 0 3.588 1.606 3.588 3.588 v 82.824 C 52.538 88.394 50.931 90 48.95 90 z" style="stroke: none; stroke-width: 1; stroke-dasharray: none; stroke-linecap: butt; stroke-linejoin: miter; stroke-miterlimit: 10; fill: #64748b; fill-rule: nonzero; opacity: 1;" transform=" matrix(1 0 0 1 0 0) " stroke-linecap="round" />
	<path d="M 76.823 26.136 v 7.616 c 0 1.982 -1.606 3.588 -3.588 3.588 h -56.47 c -1.982 0 -3.588 -1.606 -3.588 -3.588 v -7.616 c 0 -1.982 1.606 -3.588 3.588 -3.588 h 56.47 C 75.217 22.548 76.823 24.154 76.823 26.136 z" style="stroke: none; stroke-width: 1; stroke-dasharray: none; stroke-linecap: butt; stroke-linejoin: miter; stroke-miterlimit: 10; fill: #64748b; fill-rule: nonzero; opacity: 1;" transform=" matrix(1 0 0 1 0 0) " stroke-linecap="round" />
</g>
</g>
</svg>